<svg id="Capa_1" enable-background="new 0 0 511.962 511.962" height="512" viewBox="0 0 511.962 511.962" width="512" xmlns="http://www.w3.org/2000/svg"><g><path d="m10.8 423.556c.003.003.006.005.009.008l77.597 77.597c7.211 7.211 17.272 10.8 29.942 10.8 20.347 0 47.429-9.25 80.291-27.607 49.086-27.42 105.786-72.189 159.656-126.059s98.639-110.57 126.059-159.657c29.788-53.323 35.6-91.441 16.808-110.233l-77.606-77.605c-.006-.006-.013-.011-.019-.017-18.798-18.771-56.907-12.954-110.214 16.824-49.086 27.42-105.786 72.189-159.656 126.059s-98.639 110.57-126.06 159.656c-29.787 53.324-35.599 91.442-16.807 110.234zm398.613-398.614c6.37 6.371 5.457 19.08 3.568 28.619-2.727 13.775-9.505 31.067-19.696 50.354-49.635 27.278-107.04 72.385-162.013 127.357-54.972 54.973-100.078 112.378-127.355 162.013-19.288 10.192-36.581 16.97-50.356 19.697-9.537 1.888-22.243 2.801-28.614-3.564l-.004-.004c-6.371-6.37-5.457-19.079-3.568-28.619 3.069-15.507 11.263-35.466 23.693-57.718 26.547-47.522 70.137-102.664 122.741-155.268s107.745-96.194 155.268-122.741c22.253-12.431 42.211-20.624 57.719-23.693 3.948-.782 8.442-1.396 12.803-1.396 6.173-.001 12.081 1.23 15.814 4.963zm-66.354 318.117-41.853 11.214-30.638-30.638 11.215-41.852 41.853-11.214 30.638 30.638zm-202.457 28.328c26.472-40.076 63.206-84.366 104.812-125.973 41.607-41.606 85.897-78.34 125.973-104.812-26.436 40.139-62.747 83.853-104.84 125.945-42.093 42.093-85.806 78.404-125.945 104.84zm326.292-182.502c-21.894 39.194-55.388 83.569-95.963 127.429l4.155-15.507c.925-3.451-.062-7.133-2.588-9.66l-38.803-38.803c-2.526-2.525-6.206-3.515-9.659-2.588l-18.204 4.878c42.617-45.78 77.887-92.376 100.916-133.601 15.872-28.412 24.934-52.504 27.096-71.66l53.174 53.174c8.718 8.718 8.009 35.977-20.124 86.338zm-417.53 244.95c19.157-2.159 43.246-11.208 71.669-27.086 41.225-23.029 87.821-58.299 133.6-100.916l-4.877 18.203c-.925 3.451.062 7.133 2.588 9.66l38.803 38.803c1.9 1.9 4.454 2.929 7.072 2.929.862 0 1.731-.111 2.587-.341l15.508-4.156c-43.86 40.575-88.236 74.069-127.429 95.963-22.253 12.431-42.211 20.624-57.719 23.693-9.538 1.889-22.248 2.802-28.618-3.568z"/><path d="m293.27 316.191 4.45-16.61c.243-.908.953-1.617 1.861-1.861l16.61-4.451c.908-.243 1.877.016 2.542.681l12.16 12.16c.665.665.924 1.634.681 2.542l-4.451 16.61c-.243.908-.953 1.617-1.861 1.861l-16.61 4.451c-.908.243-1.877-.016-2.542-.681l-12.16-12.16c-.664-.665-.924-1.634-.68-2.542z"/><path d="m236.575 367.504c10.148 0 19.364 5.012 26.167 13.174.746.895.746 2.187 0 3.081-6.803 8.162-16.02 13.174-26.167 13.174-10.148 0-19.364-5.013-26.168-13.174-.746-.895-.746-2.187 0-3.081 6.804-8.162 16.02-13.174 26.168-13.174z"/><path d="m180.291 396.977c.891-.75 2.192-.75 3.084 0 7.385 6.21 11.914 14.593 11.914 23.817s-4.529 17.606-11.914 23.817c-.891.75-2.192.75-3.084 0-7.385-6.21-11.914-14.592-11.914-23.817s4.529-17.607 11.914-23.817z"/><path d="m128.425 435.639c8.889 0 16.969 4.354 22.964 11.457.751.89.751 2.194 0 3.084-5.995 7.103-14.075 11.457-22.964 11.457s-16.969-4.354-22.964-11.457c-.751-.89-.751-2.194 0-3.084 5.995-7.103 14.074-11.457 22.964-11.457z"/><path d="m380.678 210.408c.895-.746 2.187-.746 3.081 0 8.162 6.803 13.174 16.02 13.174 26.168s-5.012 19.364-13.174 26.168c-.895.746-2.187.746-3.081 0-8.162-6.804-13.174-16.02-13.174-26.168-.001-10.149 5.012-19.365 13.174-26.168z"/><path d="m396.976 180.291c6.21-7.385 14.592-11.914 23.817-11.914s17.606 4.529 23.817 11.914c.75.892.75 2.192 0 3.084-6.21 7.385-14.592 11.914-23.817 11.914s-17.606-4.529-23.817-11.914c-.749-.892-.749-2.192 0-3.084z"/><path d="m435.639 128.425c0-8.889 4.354-16.969 11.457-22.964.89-.751 2.194-.751 3.084 0 7.103 5.995 11.457 14.075 11.457 22.964s-4.354 16.969-11.457 22.964c-.89.751-2.194.751-3.084 0-7.104-5.995-11.457-14.075-11.457-22.964z"/></g></svg>