<svg id="Capa_1" enable-background="new 0 0 510.958 510.958" height="512" viewBox="0 0 510.958 510.958" width="512" xmlns="http://www.w3.org/2000/svg"><g><path d="m311.291 429.38c1.144.626 2.378.923 3.596.923 2.651 0 5.222-1.409 6.585-3.898 14.351-26.206 21.229-55.769 19.895-85.492-.186-4.139-3.656-7.372-7.829-7.155-4.138.186-7.342 3.69-7.155 7.829 1.212 26.979-5.035 53.817-18.066 77.613-1.991 3.633-.659 8.191 2.974 10.18z"/><path d="m219.99 490.042c-35.388 10.321-73.17 7.011-106.385-9.318-33.403-16.422-59.183-44.604-72.59-79.355-14.199-36.807-13.215-76.939 2.771-113.006s45.059-63.749 81.864-77.948c36.808-14.199 76.938-13.215 113.006 2.771 36.066 15.985 63.749 45.059 77.948 81.865 2.028 5.255 3.775 10.68 5.192 16.125 1.042 4.009 5.138 6.412 9.146 5.369s6.413-5.138 5.369-9.146c-1.56-5.994-3.481-11.965-5.714-17.747-24.071-62.397-82.643-101.511-145.576-104.004l-8.441-21.881c-2.127-5.512-6.272-9.865-11.674-12.259-1.605-.712-3.268-1.2-4.952-1.514l13.863-69.156c.54-2.694-.437-5.468-2.546-7.229l-38.612-32.251c-3.979-3.324-9.457-4.231-14.298-2.364l-74.156 28.608c-.401.119-.788.266-1.155.446l-27.069 10.442c-4.849 1.869-8.302 6.229-9.011 11.375l-6.895 49.985c-.375 2.721.766 5.429 2.975 7.06l56.592 41.781c-4.493 5.911-5.919 13.948-3.056 21.37l8.441 21.88c-44.951 44.111-62.078 112.429-38.006 174.826 14.769 38.281 43.168 69.327 79.967 87.418 22.612 11.117 47.145 16.754 71.797 16.754 15.231-.001 30.513-2.153 45.404-6.496 3.977-1.159 6.26-5.323 5.101-9.3-1.16-3.976-5.32-6.26-9.3-5.101zm-146.887-310.06-50.154-37.027 27.436-10.584 32.305 43.913zm17.384-114.158 18.999 27.669-50.336 19.419-4.562-33.238zm6.707 104.864-32.305-43.913 49.647-19.153 5.623 54.206zm37.465-14.454-5.623-54.206 27.352-10.552-12.247 61.101zm-11.291-103.095 28.664 23.941-28.162 10.864-18.999-27.669zm-83.16 32.083 4.563 33.238-28.098 10.84 5.1-36.965zm30.372 119.439c-1.412-3.662.417-7.79 4.079-9.203l78.726-30.371c1.774-.686 3.709-.636 5.446.134 1.738.77 3.072 2.171 3.757 3.944l6.42 16.642c-16.302.973-32.724 4.429-48.756 10.613-16.031 6.185-30.52 14.653-43.252 24.882z"/><path d="m269.915 403.928c1.104.572 2.283.844 3.446.844 2.711 0 5.33-1.477 6.664-4.05 15.045-29.018 16.938-63.121 5.191-93.563-10.965-28.423-32.342-50.874-60.192-63.219-27.854-12.344-58.845-13.104-87.265-2.138-19.092 7.364-35.849 19.715-48.462 35.716-2.563 3.253-2.005 7.969 1.248 10.533 3.252 2.563 7.968 2.007 10.533-1.248 10.947-13.889 25.498-24.61 42.079-31.007 24.684-9.524 51.601-8.864 75.788 1.857 24.188 10.721 42.753 30.219 52.276 54.903 10.199 26.438 8.555 56.056-4.514 81.261-1.905 3.678-.469 8.205 3.208 10.111z"/><path d="m81.911 303.282c-3.871-1.475-8.205.464-9.68 4.336-10.04 26.336-9.979 55.33.172 81.641 16.929 43.882 59.535 73.029 106.43 73.029.639 0 1.279-.006 1.919-.017 4.142-.07 7.442-3.484 7.372-7.626-.069-4.099-3.413-7.373-7.496-7.373-.044 0-.087 0-.13.001-.559.01-1.11.015-1.667.015-40.724-.003-77.73-25.318-92.434-63.428-8.814-22.85-8.868-48.029-.15-70.898 1.475-3.871-.466-8.204-4.336-9.68z"/><path d="m418.716 467.882c-40.717 29.393-92.952 36.165-139.728 18.121-36.807-14.2-65.88-41.883-81.865-77.949s-16.969-76.198-2.77-113.005c2.329-6.039 5.113-12.034 8.274-17.818 1.986-3.635.65-8.191-2.984-10.178-3.634-1.986-8.191-.651-10.178 2.984-3.478 6.362-6.541 12.961-9.106 19.613-15.642 40.544-14.559 84.752 3.05 124.481s49.636 70.224 90.181 85.865c19.048 7.349 38.908 10.962 58.655 10.961 33.666-.003 66.983-10.51 95.25-30.914 3.358-2.425 4.116-7.112 1.691-10.471-2.423-3.357-7.112-4.113-10.47-1.69z"/><path d="m436.417 301.994c-12.344-27.851-34.795-49.228-63.218-60.192-13.815-5.33-28.303-7.921-42.993-7.648-4.142.072-7.44 3.487-7.369 7.629.072 4.142 3.501 7.453 7.629 7.369 12.788-.209 25.332 2.014 37.335 6.645 50.956 19.658 76.419 77.107 56.761 128.064-9.523 24.684-28.089 44.183-52.276 54.903-24.189 10.722-51.104 11.38-75.789 1.857-24.684-9.523-44.183-28.089-54.902-52.276-10.721-24.188-11.381-51.104-1.857-75.788 1.285-3.331 2.786-6.666 4.462-9.912 1.9-3.681.457-8.205-3.224-10.104-3.68-1.899-8.204-.457-10.104 3.224-1.924 3.726-3.649 7.56-5.128 11.395-10.966 28.422-10.206 59.413 2.138 87.265 12.344 27.851 34.795 49.228 63.218 60.192 13.328 5.143 27.221 7.706 41.09 7.706 15.707 0 31.385-3.288 46.175-9.844 27.852-12.345 49.229-34.796 60.193-63.219 10.962-28.423 10.203-59.414-2.141-87.266z"/><path d="m510.883 139.85-6.896-49.982c-.709-5.148-4.162-9.508-9.009-11.376l-27.071-10.444c-.367-.18-.754-.327-1.155-.446l-74.159-28.61c-4.838-1.866-10.317-.96-14.297 2.365l-38.612 32.251c-2.109 1.762-3.086 4.535-2.546 7.229l13.863 69.156c-1.684.314-3.346.802-4.952 1.514-5.401 2.394-9.547 6.747-11.674 12.26l-8.407 21.793c-13.163.517-26.321 2.659-39.27 6.435-3.977 1.16-6.26 5.324-5.1 9.301 1.161 3.977 5.325 6.254 9.301 5.1 31.286-9.127 63.933-7.737 94.407 4.019 36.806 14.199 65.879 41.882 81.864 77.948s16.97 76.199 2.771 113.006c-6.608 17.126-16.166 32.646-28.408 46.126-2.785 3.066-2.557 7.81.51 10.594 1.437 1.305 3.241 1.948 5.04 1.948 2.041 0 4.074-.828 5.554-2.458 13.492-14.855 24.022-31.951 31.299-50.812 15.642-40.544 14.558-84.753-3.051-124.482-8.5-19.177-20.367-36.193-34.921-50.435l8.407-21.79c2.863-7.422 1.437-15.458-3.056-21.37l56.592-41.781c2.211-1.631 3.351-4.339 2.976-7.059zm-73.027 40.132-9.587-3.698 32.305-43.913 27.436 10.584zm-71.038-27.406-12.247-61.1 27.352 10.552-5.623 54.206zm29.604-44.954 49.647 19.153-32.305 43.913-22.965-8.86zm59.949-27.948-4.562 33.238-50.336-19.419 18.999-27.669zm37.915 49.625-28.098-10.84 4.563-33.238 18.436 7.112zm-106.697-76.16 18.498 7.136-18.999 27.669-28.162-10.864zm3.118 143.281c-15.845-6.113-32.224-9.678-48.728-10.685l6.392-16.569c.685-1.774 2.019-3.176 3.757-3.945 1.737-.77 3.673-.817 5.447-.134l78.725 30.371c3.662 1.413 5.491 5.541 4.079 9.203l-6.396 16.579c-12.893-10.316-27.43-18.707-43.276-24.82z"/><path d="m190.063 46.022c7.472 4.15 13.467 10.238 18.326 18.611 2.141 3.688 6.077 5.942 10.333 5.942.107 0 .215-.001.323-.004 4.362-.117 8.304-2.598 10.284-6.475 4.209-8.237 10.223-14.212 18.386-18.265 3.849-1.911 6.397-5.759 6.651-10.041.256-4.31-1.747-8.293-5.356-10.655-7.953-5.206-14.531-11.815-19.553-19.646-2.273-3.544-6.12-5.58-10.34-5.486-4.238.11-8.026 2.384-10.135 6.083-4.552 7.984-10.838 14.274-19.219 19.229-3.664 2.167-5.903 6.159-5.846 10.419.059 4.272 2.414 8.213 6.146 10.288zm29.466-28.489c4.788 6.575 10.527 12.359 17.139 17.272-7.396 4.496-13.454 10.479-18.086 17.864-4.741-6.996-10.419-12.735-16.954-17.138 7.206-4.943 13.202-10.972 17.901-17.998z"/><path d="m236.753 110.206c-4.271 2.525-6.779 6.998-6.712 11.965.066 4.908 2.771 9.437 7.06 11.818 10.795 5.996 19.811 15.138 26.796 27.173 2.459 4.235 6.981 6.826 11.871 6.826.124 0 .248-.002.371-.005 5.01-.135 9.534-2.981 11.808-7.431 6.195-12.125 15.053-20.922 27.079-26.894 4.426-2.198 7.357-6.623 7.65-11.547.294-4.946-2.004-9.519-6.147-12.231-11.492-7.521-20.999-17.074-28.257-28.396-2.612-4.07-7.055-6.431-11.873-6.301-4.874.127-9.232 2.744-11.66 7.002v.001c-6.544 11.481-15.96 20.908-27.986 28.02zm40.024-18.892c7.847 11.75 17.819 21.787 29.685 29.881-13.196 6.994-23.533 17.225-30.773 30.454-7.783-12.756-17.659-22.725-29.402-29.681 12.817-7.958 23.059-18.256 30.49-30.654z"/></g></svg>