<svg id="f2ce5bb3-ccdb-41b8-a796-8d4d9fb75193" viewBox="0 0 64 64" xmlns="http://www.w3.org/2000/svg" data-name="line"><path d="m56.56421 10.20319a.982.982 0 0 0 -1.89307-.52259c-.01422.05139-1.36 4.76654-4.19659 6.277-1.28766-2.9447.58136-7.47784.60217-7.52661a.9821.9821 0 0 0 -1.80914-.76428 16.9936 16.9936 0 0 0 -1.19708 5.587c-.224.3302-.647.975-1.16065 1.85224a7.40948 7.40948 0 0 1 -5.628-7.234c-.124-5.16632-18.42828-5.15869-18.55072-.00019a7.4375 7.4375 0 0 1 -5.63623 7.23761c-.51434-.8789-.93817-1.525-1.16248-1.85559a16.99735 16.99735 0 0 0 -1.19708-5.58709.98215.98215 0 0 0 -1.80914.7644c.02081.04871 1.88977 4.58185.60211 7.52655-2.8366-1.5105-4.18231-6.22564-4.19658-6.2771a.98207.98207 0 0 0 -1.893.52271 16.8597 16.8597 0 0 0 2.64655 5.27917 16.17741 16.17741 0 0 0 .36407 2.72852c-1.52644 2.23657-1.27522 30.13611 15.34965 40.1225a14.97782 14.97782 0 0 0 6.181 1.66479c14.26829-1.05423 20.131-19.17053 21.50822-29.70441a.982.982 0 0 0 -1.944-.27826c-1.2999 9.10773-4.83292 21.11554-14.24422 26.57904.03406-.00079-3.17578 1.57807-5.44489 1.44135a13.44724 13.44724 0 0 1 -5.1062-1.4212c-13.4942-7.82642-14.83374-29.36249-14.957-34.621a11.99016 11.99016 0 0 0 3.04049 3.80935 14.83748 14.83748 0 0 0 5.81006 8.86719 16.66273 16.66273 0 0 0 7.86291 8.47485v1.35669c-3.82635 1.82874-3.04755 7.30933 3.03137 10.48737a.98185.98185 0 0 0 .92932.00006c6.07258-3.16291 6.85706-8.67145 3.03162-10.488l-.00012-1.35614a16.6633 16.6633 0 0 0 7.86279-8.47449 14.84371 14.84371 0 0 0 5.81037-8.86853 11.9942 11.9942 0 0 0 3.04128-3.81126c-.01935.921-.07459 2.35822-.23236 4.15986a.982.982 0 0 0 1.95636.17071c.28625-3.2655.25079-5.38586.24792-5.4079a4.74726 4.74726 0 0 0 -.62915-2.70916 16.188 16.188 0 0 0 .36285-2.72193 16.86231 16.86231 0 0 0 2.64659-5.27923zm-32.17169-.02283a14.14824 14.14824 0 0 0 5.65539 1.45282.98292.98292 0 0 0 .07868-1.96124c-3.66785-.33-5.31794-1.284-5.42694-1.8252.07928-.50488 2.58783-1.86029 7.3114-1.86029 4.79455 0 7.3067 1.40106 7.3053 1.8902-.13056.48016-1.81037 1.48462-5.42176 1.79535a.98253.98253 0 0 0 .16114 1.95825 14.19626 14.19626 0 0 0 5.558-1.44666 9.18927 9.18927 0 0 0 6.3197 6.70533 24.79051 24.79051 0 0 0 -2.18143 5.73175c-1.49206 1.46795-4.54553 4.81341-5.775 8.57165a22.37927 22.37927 0 0 0 -5.97553 6.61334 22.37788 22.37788 0 0 0 -5.97468-6.61266c-1.22686-3.75567-4.283-7.10357-5.77594-8.57232a24.788 24.788 0 0 0 -2.18035-5.72968 9.18331 9.18331 0 0 0 6.32202-6.71064zm9.141 34.31781a4.70275 4.70275 0 0 0 -1.532 1.062 4.70945 4.70945 0 0 0 -1.532-1.06274c.00385-.15491-.01477-1.73944.01587-1.84717a1.54553 1.54553 0 0 1 2.59839-.84369c.6733.5702.39785 1.93781.44973 2.6916zm-21.06971-26.28467c-.00379-.02515-.11591-.49481-.15534-.69562.62421.31708 1.42829.9198 2.13971.52759a3.68961 3.68961 0 0 0 1.05811-1.74969c.06634.11511.1322.22827.20013.34991 1.34558 2.39331 3.05628 6.064 2.89087 9.0351l-.13232.05847a10.53163 10.53163 0 0 1 -6.00116-7.52576zm4.91943 9.1775a2.08946 2.08946 0 0 0 3.168-1.56372c1.76685 2.068 4.01489 5.29993 4.04559 8.3523-.01989.06677-.09363.20153-.21527.15728-3.32895-.90119-6.15823-4.39393-6.99832-6.94586zm6.232 8.75177a2.15873 2.15873 0 0 0 2.94245-1.944 16.71857 16.71857 0 0 1 4.14751 5.45423 3.52853 3.52853 0 0 0 -1.744 1.53961 13.974 13.974 0 0 1 -5.34597-5.04985zm12.228 11.97992c.01392.8075-.34527 2.85022-3.8418 4.87756-3.49658-2.02734-3.85577-4.07006-3.84185-4.87756a1.73248 1.73248 0 0 1 1.30713-1.849c.48358-.04816 1.22345.70746 1.80487 1.40119a1.04825 1.04825 0 0 0 1.63513-.19953c.80652-.92639 1.38818-1.40588 1.9732-1.11914a1.94466 1.94466 0 0 1 .96334 1.76647zm-.79645-6.933a3.4449 3.4449 0 0 0 -1.746-1.54224 16.72544 16.72544 0 0 1 4.14337-5.44763 2.16016 2.16016 0 0 0 2.945 1.94079 13.97679 13.97679 0 0 1 -5.34235 5.04903zm6.98114-7.98444a10.22279 10.22279 0 0 1 -2.43542 1.13165c-.0799.01667-.18439-.1-.18652-.14581.02893-3.06537 2.27655-6.28937 4.04565-8.36359a2.0886 2.0886 0 0 0 3.16827 1.56269 11.93425 11.93425 0 0 1 -4.59196 5.81501zm9.50832-14.98025c-.57818 2.348-2.306 6.2951-6.12915 7.46362-.17492-3.12781 1.721-7.01947 3.08973-9.3927a3.68932 3.68932 0 0 0 1.05786 1.74957c.712.39191 1.51471-.2102 2.13971-.52753-.0412.20952-.15552.68779-.15815.70704z"/></svg>